<svg xmlns="http://www.w3.org/2000/svg" width="44" height="37" viewbox="0 0 11 9">
    <path
       fill="#ffffff"
       stroke="#6d6d6d"
       stroke-linejoin="round"
       stroke-width="2"
       d="M 1,8.35 C 1,6.332 2.923,4.696 5.295,4.696 h 1.952 9.371 17.572 c 1.14,0 2.232,0.385 3.037,1.07 0.806,0.686 1.258,1.615 1.258,2.584 v 9.135 5.48 c 0,2.018 -1.923,3.654 -4.295,3.654 H 16.62 L 4.375,35.91 7.246,26.62 H 5.295 C 2.923,26.62 1,24.982 1,22.964 v -5.48 z"
       style="color:#000000"
       id="path1" />
    <path
       fill="#eb1a1a"
       stroke="#eb1a1a"
       stroke-linejoin="round"
       stroke-width="2"
       d="M 28.62,8.133 C 28.62,4.193 31.777,1 35.675,1 c 3.897,0 7.054,3.192 7.054,7.133 0,3.94 -3.157,7.133 -7.054,7.133 -3.898,0 -7.055,-3.192 -7.055,-7.133 z"
       id="path2" />
</svg>
