<svg xmlns="http://www.w3.org/2000/svg" xml:space="preserve" width="800" height="800" viewBox="0 0 420.004 420.004"><path d="m224.139 210 40.776 40.776c36.787-33.665 83.793-54.3 134.218-58.917-3.965-41.654-21.431-79.428-47.967-108.886L224.139 210zM195.854 210l-40.768-40.768c-36.785 33.663-83.79 54.296-134.215 58.912 3.964 41.652 21.426 79.424 47.958 108.881L195.854 210zM264.928 279.074c-30.139 33.221-48.696 75.509-53.062 120.904 48.061-.466 91.908-18.858 125.16-48.806l-72.098-72.098zM169.228 155.089l40.768 40.768L337.023 68.831c-29.458-26.53-67.229-43.992-108.88-47.957-4.617 50.424-25.25 97.43-58.915 134.215zM250.772 264.918l-40.776-40.776L82.971 351.168c29.459 26.535 67.233 43.999 108.887 47.962 4.618-50.423 25.25-97.427 58.914-134.212zM155.073 140.934c30.139-33.223 48.697-75.512 53.063-120.907-48.062.464-91.91 18.857-125.162 48.808l72.099 72.099zM68.831 82.977c-29.949 33.252-48.341 77.099-48.808 125.159 45.396-4.364 87.685-22.921 120.907-53.06L68.831 82.977zM351.169 337.03c29.953-33.252 48.347-77.101 48.812-125.164-45.396 4.365-87.687 22.924-120.91 53.065l72.098 72.099z" style="fill:#ffac52"/><path d="M209.997.003C94.204.003 0 94.21 0 210.005c0 115.793 94.204 209.997 209.997 209.997 115.799 0 210.008-94.204 210.008-209.997C420.004 94.21 325.795.003 209.997.003zM20.024 208.137c.466-48.061 18.858-91.907 48.808-125.159l72.099 72.099c-33.222 30.138-75.511 48.695-120.907 53.06zm188.112-188.11c-4.366 45.395-22.924 87.684-53.063 120.907L82.974 68.835c33.252-29.951 77.1-48.344 125.162-48.808zm191.845 191.839c-.465 48.063-18.858 91.911-48.812 125.164l-72.099-72.098c33.224-30.142 75.515-48.7 120.911-53.066zm-135.066 38.91L224.139 210 351.166 82.973c26.536 29.458 44.002 67.232 47.967 108.886-50.425 4.617-97.431 25.251-134.218 58.917zm-109.829-81.544L195.854 210 68.829 337.025c-26.532-29.458-43.994-67.23-47.958-108.881 50.425-4.616 97.43-25.249 134.215-58.912zm54.91 26.626-40.768-40.768c33.664-36.786 54.297-83.791 58.915-134.215 41.651 3.965 79.422 21.427 108.88 47.957L209.996 195.858zm0 28.284 40.776 40.776c-33.664 36.785-54.297 83.789-58.914 134.212-41.654-3.964-79.429-21.428-108.887-47.962l127.025-127.026zm54.932 54.932 72.098 72.098c-33.252 29.948-77.099 48.339-125.16 48.806 4.366-45.395 22.923-87.683 53.062-120.904z"/></svg>